# xmcd
#
# Track frame offsets:
#	180
#	15097
#	28790
#	51345
#	68738
#	84072
#	106027
#	123127
#	136905
#	150361
#	163617
#	179857
#	208899
#	230548
#	245241
#	260399
#
# Disc length: 3625 seconds
#
# Revision: 0
# Processed by: cddbd v1.5.1PL0 Copyright (c) Steve Scherf et al.
# Submitted via: dBpowerAMP V4.0
#
DISCID=cc0e2710
DTITLE=Various Artist - Let It Pour A Deluge Records Sampler
DYEAR=1900
DGENRE=
TTITLE0=Lucky 7 - C'est Parti Mon Kiki
TTITLE1=The Tony O Blue's Band - I Think About You
TTITLE2=Eddie Kirkland - Sugar Mama
TTITLE3=Christina Ohlman And Rebel Montez - My Secret Heart
TTITLE4=Little Anthony and The Loco-Motives - Don't Wait On Me 
TTITLE5=Pinetop Perkins - Down In Mississippi
TTITLE6=Neal Black - Out Of The Hole
TTITLE7=Zora Young - Stumbling Blocks And Stepping Stones
TTITLE8=Colin Linden - Keep Your Lamp Trimmed And Burning
TTITLE9=Hans Theessink - Mabelline
TTITLE10=Eddie Kirkland - In Love With You
TTITLE11=Cub Coda And The Houserockers - Dust My Broom
TTITLE12=Pinetop Perkins - Caledonia
TTITLE13=Little Anthony and The Loco-Motives - Positions Wanted
TTITLE14=Eddie Kirkland - All I've Got To Offer
TTITLE15=Lucky 7 - Tomorrow Night 
EXTD=
EXTT0=
EXTT1=
EXTT2=
EXTT3=
EXTT4=
EXTT5=
EXTT6=
EXTT7=
EXTT8=
EXTT9=
EXTT10=
EXTT11=
EXTT12=
EXTT13=
EXTT14=
EXTT15=
PLAYORDER=
